# xmcd
#
# Track frame offsets:
#	150
#	10872
#	30847
#	47870
#	63460
#	91102
#	104355
#	114302
#	138395
#	166082
#	192027
#	215160
#
# Disc length: 3073 seconds
#
# Revision: 1
# Processed by: cddbd v1.5.2PL0 Copyright (c) Steve Scherf et al.
# Submitted via: audiograbber 1.83.01
#
DISCID=960bff0c
DTITLE=Sarasota Slim - Snook Fishin'
DYEAR=1999
DGENRE=Blues
TTITLE0=Anything You Want
TTITLE1=A Sandspur Needs A Foot
TTITLE2=Reach Out
TTITLE3=Thin White Bread
TTITLE4=Noodle Boogie
TTITLE5=Snook Fishin'
TTITLE6=Johnny's Breakfast
TTITLE7=Kudzu Killer
TTITLE8=I'll Be Your Fool
TTITLE9=Bourbon To Beale
TTITLE10=Traffic Jam
TTITLE11=I Don't Play The Blues No More
EXTD=
EXTT0=
EXTT1=
EXTT2=
EXTT3=
EXTT4=
EXTT5=
EXTT6=
EXTT7=
EXTT8=
EXTT9=
EXTT10=
EXTT11=
PLAYORDER=
